<?xml version="1.0" encoding="UTF-8"?>
<svg width="36px" height="36px" viewBox="0 0 36 36" version="1.1" xmlns="http://www.w3.org/2000/svg" xmlns:xlink="http://www.w3.org/1999/xlink">
    <!-- Generator: Sketch 50.2 (55047) - http://www.bohemiancoding.com/sketch -->
    <title>备注 copy 12</title>
    <desc>Created with Sketch.</desc>
    <defs></defs>
    <g id="作文精批" stroke="none" stroke-width="1" fill="none" fill-rule="evenodd">
        <g id="底部icon" transform="translate(-521.000000, -1515.000000)">
            <g id="备注-copy-12" transform="translate(521.000000, 1515.000000)">
                <path d="M18,34.8 C27.2783838,34.8 34.8,27.2783838 34.8,18 C34.8,8.7216162 27.2783838,1.2 18,1.2 C8.7216162,1.2 1.2,8.7216162 1.2,18 C1.2,27.2783838 8.7216162,34.8 18,34.8 Z" id="Shape" stroke="#FF3D42" stroke-width="2.4" fill-rule="nonzero"></path>
                <path d="M18,15.4789521 L22.4221706,11.0567815 C22.7645459,10.7144062 23.3196459,10.7144062 23.6620212,11.0567815 L24.9432185,12.3379788 C25.2855938,12.6803541 25.2855938,13.2354541 24.9432185,13.5778294 L20.5210479,18 L24.9432185,22.4221706 C25.2855938,22.7645459 25.2855938,23.3196459 24.9432185,23.6620212 L23.6620212,24.9432185 C23.3196459,25.2855938 22.7645459,25.2855938 22.4221706,24.9432185 L18,20.5210479 L13.5778294,24.9432185 C13.2354541,25.2855938 12.6803541,25.2855938 12.3379788,24.9432185 L11.0567815,23.6620212 C10.7144062,23.3196459 10.7144062,22.7645459 11.0567815,22.4221706 L15.4789521,18 L11.0567815,13.5778294 C10.7144062,13.2354541 10.7144062,12.6803541 11.0567815,12.3379788 L12.3379788,11.0567815 C12.6803541,10.7144062 13.2354541,10.7144062 13.5778294,11.0567815 L18,15.4789521 Z" id="Combined-Shape-Copy-82" fill="#FF3D42"></path>
            </g>
        </g>
    </g>
</svg>