<?xml version="1.0" standalone="no"?><!DOCTYPE svg PUBLIC "-//W3C//DTD SVG 1.1//EN" "http://www.w3.org/Graphics/SVG/1.1/DTD/svg11.dtd"><svg t="1542809220539" class="icon" style="" viewBox="0 0 1024 1024" version="1.1" xmlns="http://www.w3.org/2000/svg" p-id="1954" xmlns:xlink="http://www.w3.org/1999/xlink" width="100" height="100"><defs><style type="text/css"></style></defs><path d="M890.61613 631.517047c-14.546298 0-26.336832 11.791557-26.336832 26.336832l0 208.54571c0 9.466606-7.601118 17.096377-16.934694 17.096377L134.316102 883.495966c-9.278317 0-16.934694-7.673773-16.934694-16.899902L117.381407 345.086479c0-9.381671 7.522324-16.899902 17.016559-16.899902L306.023812 328.186578c14.546298 0 26.336832-11.791557 26.336832-26.336832 0-14.545274-11.790534-26.336832-26.336832-26.336832L134.396943 275.512914c-38.58069 0-69.690222 31.097252-69.690222 69.574588l0 521.509585c0 38.293141 31.214932 69.574588 69.609381 69.574588l713.028503 0c38.468127 0 69.609381-31.258934 69.609381-69.771063L916.953985 657.853879C916.953985 643.308605 905.162428 631.517047 890.61613 631.517047z" p-id="1955"></path><path d="M422.031942 762.390747c1.403976 14.477736 14.280238 25.075095 28.757974 23.670096 14.476713-1.404999 25.075095-14.280238 23.669072-28.757974-0.103354-1.061169-0.281409-3.436262-0.470721-7.010671-3.213181-60.963467 5.087878-135.399783 34.351366-206.108195 15.686261-37.906332 36.597523-71.764464 63.285349-100.67491 35.95591-38.95522 87.049588-73.15002 149.384285-102.44216 47.210231-22.185278 98.009198-40.272215 148.83477-54.510498 1.760087-0.493234 3.498684-0.972141 5.234211-1.449002L768.290107 455.725322c-7.716752 12.329816-3.976568 28.580942 8.352225 36.297694 12.33084 7.716752 28.580942 3.977591 36.297694-8.352225l138.478911-221.249033c2.841721-3.019777 4.949732-6.687306 6.120394-10.69969 4.734838-12.267395-0.344854-26.572192-12.496615-32.847106L696.976922 90.77033c-12.926404-6.674003-28.813233-1.607614-35.487236 11.316743-6.67298 12.924357-1.606591 28.811186 11.316743 35.486212l187.67845 96.919377c-1.611707 0.444115-3.219321 0.88516-4.850471 1.342578-53.446259 14.971993-106.919125 34.010605-157.027359 57.558927-67.992557 31.950689-124.511805 69.77618-165.69067 114.388237-31.104415 33.697473-55.282071 72.843028-73.249281 116.259864-32.753985 79.138408-41.87369 160.910806-38.281885 229.024114C421.61648 757.429759 421.855934 760.576425 422.031942 762.390747z" p-id="1956"></path></svg>