<?xml version="1.0" standalone="no"?><!DOCTYPE svg PUBLIC "-//W3C//DTD SVG 1.1//EN" "http://www.w3.org/Graphics/SVG/1.1/DTD/svg11.dtd"><svg t="1542877130098" class="icon" style="" viewBox="0 0 1024 1024" version="1.1" xmlns="http://www.w3.org/2000/svg" p-id="4222" xmlns:xlink="http://www.w3.org/1999/xlink" width="100" height="100"><defs><style type="text/css"></style></defs><path d="M512 64c249.6 0 448 198.4 448 448s-198.4 448-448 448-448-198.4-448-448 198.4-448 448-448z m0 832c211.2 0 384-172.8 384-384s-172.8-384-384-384-384 172.8-384 384 172.8 384 384 384z m-44.8-192c0 25.6 19.2 51.2 51.2 51.2 25.6 0 51.2-19.2 51.2-51.2 0-25.6-19.2-51.2-51.2-51.2-25.6 0-51.2 25.6-51.2 51.2z m-64-396.8c-32 38.4-70.4 140.8 6.4 140.8 44.8 0 38.4-25.6 44.8-32 0-6.4 6.4-38.4 19.2-44.8 12.8-12.8 19.2-19.2 38.4-19.2s32 6.4 44.8 12.8c12.8 12.8 19.2 25.6 19.2 38.4 0 12.8 0 19.2-6.4 25.6-6.4 6.4-19.2 25.6-44.8 44.8-19.2 19.2-38.4 44.8-51.2 70.4-25.6 57.6 64 70.4 76.8 44.8 19.2-25.6 6.4-25.6 44.8-70.4 25.6-12.8 38.4-25.6 44.8-38.4l19.2-38.4c12.8-38.4 6.4-76.8-12.8-108.8-44.8-70.4-166.4-115.2-243.2-25.6z" p-id="4223"></path></svg>