<?xml version="1.0" encoding="UTF-8"?>
<svg width="39px" height="34px" viewBox="0 0 39 34" version="1.1" xmlns="http://www.w3.org/2000/svg" xmlns:xlink="http://www.w3.org/1999/xlink">
    <!-- Generator: Sketch 50.2 (55047) - http://www.bohemiancoding.com/sketch -->
    <title>Group 13</title>
    <desc>Created with Sketch.</desc>
    <defs></defs>
    <g id="作文精批" stroke="none" stroke-width="1" fill="none" fill-rule="evenodd">
        <g id="底部icon" transform="translate(-57.000000, -1373.000000)" fill="#515151">
            <g id="Group-13" transform="translate(53.000000, 1367.000000)">
                <path d="M42.506704,19.4218609 L26.0271973,6.8165897 C24.6083155,5.72780343 22.3858339,5.72780343 20.9671552,6.8165897 L4.49455553,19.4218609 C3.92838419,19.8545547 3.83752659,20.6457872 4.27794979,21.1867404 C4.71816985,21.7278902 5.5218203,21.8225373 6.08799164,21.3963794 L6.5982467,20.9907628 L6.5982467,36.2264484 C6.5982467,38.3837254 8.95348494,40 11.0151246,40 L37.0136028,40 C39.0544199,40 40.3961058,38.4852524 40.3961058,36.2264484 L40.3961058,21.0449171 L40.8714196,21.3963794 C41.1091018,21.5791379 41.4024972,21.666856 41.689138,21.666856 C42.0734417,21.666856 42.4578979,21.5046388 42.7164027,21.1867404 C43.1637837,20.6457872 43.0729261,19.8545547 42.5069072,19.4218609 L42.506704,19.4218609 Z M22.1973641,37.4843808 L22.1973641,30.5054555 C22.1973641,30.1607256 22.8472321,29.984847 23.4971509,29.984847 C24.1470697,29.984847 24.7971916,30.1607256 24.7971916,30.5054555 L24.7971916,37.4776484 L22.1973641,37.4843808 Z M37.8033885,36.2264484 C37.8033885,37.0584195 37.5657062,37.4843808 37.0205606,37.4843808 L27.4247995,37.4843808 C27.4247995,37.4640361 27.3970191,37.4505713 27.3970191,37.4302266 L27.3970191,30.5054555 C27.3970191,29.044813 26.180929,27.4692278 23.4971509,27.4692278 C20.8134236,27.4692278 19.5972826,29.044813 19.5972826,30.5054555 L19.5972826,37.4302266 C19.5972826,37.4505713 19.6324271,37.4640361 19.6324271,37.4843808 L11.0220824,37.4843808 C10.2045164,37.4843808 9.205032,36.8013586 9.205032,36.2264484 L9.205032,18.995703 L22.5607945,8.79110822 C23.0428629,8.42598446 23.9095905,8.42598446 24.3847519,8.79110822 L37.7964307,19.0565897 L37.7964307,36.2264484 L37.8033885,36.2264484 Z" id="shouye"></path>
            </g>
        </g>
    </g>
</svg>