<?xml version="1.0" encoding="UTF-8"?>
<svg width="36px" height="36px" viewBox="0 0 36 36" version="1.1" xmlns="http://www.w3.org/2000/svg" xmlns:xlink="http://www.w3.org/1999/xlink">
    <!-- Generator: Sketch 50.2 (55047) - http://www.bohemiancoding.com/sketch -->
    <title>备注</title>
    <desc>Created with Sketch.</desc>
    <defs></defs>
    <g id="作文精批" stroke="none" stroke-width="1" fill="none" fill-rule="evenodd">
        <g id="作文精批移动端" transform="translate(-5879.000000, -1074.000000)">
            <g id="备注" transform="translate(5879.000000, 1074.000000)">
                <path d="M18,36 C8.0588745,36 1.21743675e-15,27.9411255 0,18 C-1.21743675e-15,8.0588745 8.0588745,1.82615513e-15 18,0 C27.9411255,6.08718376e-16 36,8.0588745 36,18 C36,27.9411255 27.9411255,36 18,36 Z" id="Shape" fill="#FFAA01" fill-rule="nonzero"></path>
                <path d="M17.8386708,27.5744608 C16.6957506,27.5744608 15.7692308,26.6477433 15.7692308,25.5045794 L15.7692308,17.428804 C15.7692308,16.2823395 16.6969108,15.3544616 17.8386708,15.3544615 L18.1597908,15.3544615 C19.3015508,15.3544615 20.2292308,16.2823394 20.2292308,17.428804 L20.2292308,25.5045794 C20.2292308,26.0535461 20.0112012,26.5800285 19.6231059,26.9682066 C19.2350106,27.3563847 18.7086404,27.5744608 18.1597908,27.5744608 L17.8386708,27.5744608 Z" id="Path" fill="#FFFFFF"></path>
                <path d="M18.1597908,11.8892155 L17.8386708,11.8892155 C16.6950296,11.886756 15.7692281,10.9589593 15.7692308,9.81531543 L15.7692308,9.45405541 C15.7692308,8.31229539 16.6969108,7.38461537 17.8386708,7.38461537 L18.1597908,7.38461537 C19.3015508,7.38461537 20.2292308,8.31229539 20.2292308,9.45405541 L20.2292308,9.81531543 C20.2292335,10.9589593 19.303432,11.886756 18.1597908,11.8892155 Z" id="Path" fill="#FFFFFF"></path>
            </g>
        </g>
    </g>
</svg>