<?xml version="1.0" encoding="UTF-8"?>
<svg width="40px" height="40px" viewBox="0 0 40 40" version="1.1" xmlns="http://www.w3.org/2000/svg" xmlns:xlink="http://www.w3.org/1999/xlink">
    <!-- Generator: Sketch 50.2 (55047) - http://www.bohemiancoding.com/sketch -->
    <title>我的1 copy</title>
    <desc>Created with Sketch.</desc>
    <defs></defs>
    <g id="作文精批" stroke="none" stroke-width="1" fill="none" fill-rule="evenodd">
        <g id="底部icon" transform="translate(-655.000000, -1186.000000)" stroke="#515151" stroke-width="2">
            <g id="我的1-copy" transform="translate(654.000000, 1185.000000)">
                <path d="M34.3059715,34.5593627 L34.3067919,34.5585561 C37.9459875,30.9851243 39.9972797,26.0997109 40,20.9999943 C40,10.5068444 31.4927332,2 21.0004146,2 C10.5088036,2 2,10.5086248 2,20.9999943 C2,31.4925353 10.5066576,39.9999887 21.0014769,39.9999893 C25.9789773,40.0052769 30.7584556,38.0507971 34.3059715,34.5593627 Z" id="Shape-Copy" fill="#FFDA44" fill-rule="nonzero"></path>
                <path d="M7.19554118,34.1688406 C10.7481688,37.8643374 15.6466564,39.9999883 20.8927983,39.9999888 C25.735404,40.0051331 30.3905753,38.1552936 33.906932,34.8390875 C31.5386404,29.5186375 26.288022,26 20.3918554,26 C14.7604525,26 9.70401113,29.2090388 7.19554118,34.1688406 Z" id="Combined-Shape-Copy-2" fill="#FFFFFF" fill-rule="nonzero"></path>
                <circle id="Oval-2-Copy" fill="#FFFFFF" cx="21" cy="16" r="7"></circle>
            </g>
        </g>
    </g>
</svg>