<?xml version="1.0" encoding="UTF-8"?>
<svg width="41px" height="41px" viewBox="0 0 41 41" version="1.1" xmlns="http://www.w3.org/2000/svg" xmlns:xlink="http://www.w3.org/1999/xlink">
    <!-- Generator: Sketch 50.2 (55047) - http://www.bohemiancoding.com/sketch -->
    <title>咨询黑色icon</title>
    <desc>Created with Sketch.</desc>
    <defs></defs>
    <g id="作文精批" stroke="none" stroke-width="1" fill="none" fill-rule="evenodd">
        <g id="作文精批移动端" transform="translate(-4421.000000, -452.000000)" fill="#515151">
            <g id="咨询黑色icon" transform="translate(4418.000000, 449.000000)">
                <path d="M10.7742595,21.7098159 C10.7742595,23.1537067 11.9128649,24.3242855 13.3173171,24.3242855 C14.7217693,24.3242855 15.8603748,23.1537067 15.8603748,21.7098159 C15.8603748,20.2659251 14.7217693,19.0953463 13.3173171,19.0953463 C11.9128649,19.0953463 10.7742595,20.2659251 10.7742595,21.7098159 C10.7742595,23.1537067 10.7742595,21.7098159 10.7742595,21.7098159 Z" id="Fill-1"></path>
                <path d="M20.8257299,21.7098159 C20.8257299,23.1537067 21.9642731,24.3242855 23.3687876,24.3242855 C24.7732398,24.3242855 25.9118452,23.1537067 25.9118452,21.7098159 C25.9118452,20.2659251 24.7732398,19.0953463 23.3687876,19.0953463 C21.9642731,19.0953463 20.8257299,20.2659251 20.8257299,21.7098159 C20.8257299,23.1537067 20.8257299,21.7098159 20.8257299,21.7098159 Z" id="Fill-2"></path>
                <path d="M30.8771381,21.7098159 C30.8771381,23.1537067 32.0157436,24.3242855 33.4201958,24.3242855 C34.824648,24.3242855 35.9632534,23.1537067 35.9632534,21.7098159 C35.9632534,20.2659251 34.824648,19.0953463 33.4201958,19.0953463 C32.0157436,19.0953463 30.8771381,20.2659251 30.8771381,21.7098159 Z" id="Fill-3"></path>
                <path d="M42.3058725,14.3818814 C41.2608392,12.1586708 39.774698,10.1588175 37.8781214,8.45108112 C34.0180865,4.96736037 28.9017967,3.0544961 23.4713187,3.0544961 C18.0349924,3.0544961 12.9185159,4.97337285 9.0647648,8.45108112 C7.1679393,10.1588175 5.68204704,12.1524025 4.63701366,14.3818814 C3.54973596,16.7044899 3,19.1697988 3,21.7098159 C3,24.6908549 3.79131866,27.6528331 5.28324583,30.2860437 C6.58809105,32.5839626 8.43632625,34.6392715 10.6532504,36.2665429 L10.6532504,42.445454 C10.6532504,42.9796053 10.9312291,43.4703261 11.3781851,43.7371778 C11.6017876,43.8675975 11.8555023,43.9360374 12.102871,43.9360374 C12.3505508,43.9360374 12.6042656,43.8678534 12.827868,43.7371778 L19.1884052,39.9614041 C20.5899954,40.2347161 22.0335812,40.3714041 23.4713187,40.3714041 C28.9078938,40.3714041 34.0241214,38.4525273 37.8778725,34.974819 C39.774698,33.2668268 41.2605903,31.2734977 42.3056237,29.0440187 C43.3929014,26.7214103 43.9426373,24.2561014 43.9426373,21.7160842 C43.9487344,19.1697988 43.3929014,16.7044899 42.3056237,14.3818814 L42.3058725,14.3818814 Z M23.4713187,37.3903651 C22.0459621,37.3903651 20.6203566,37.2352559 19.2428437,36.930922 C18.8926328,36.8564696 18.5241927,36.912181 18.2160395,37.0985679 L13.5528027,39.8684665 L13.5528027,35.484025 C13.5528027,34.9810874 13.3051851,34.515312 12.9005357,34.2357317 C8.44845827,31.2362715 5.89351745,26.6716474 5.89351745,21.7098159 C5.89351745,13.0654041 13.7764052,6.03547114 23.4713187,6.03547114 C33.1603839,6.03547114 41.0491199,13.0654041 41.0491199,21.7098159 C41.0491199,30.3542917 33.1603839,37.3903651 23.4713187,37.3903651 Z" id="Fill-4"></path>
            </g>
        </g>
    </g>
</svg>