<?xml version="1.0" encoding="UTF-8"?>
<svg width="33px" height="37px" viewBox="0 0 33 37" version="1.1" xmlns="http://www.w3.org/2000/svg" xmlns:xlink="http://www.w3.org/1999/xlink">
    <!-- Generator: Sketch 50.2 (55047) - http://www.bohemiancoding.com/sketch -->
    <title>阅读</title>
    <desc>Created with Sketch.</desc>
    <defs></defs>
    <g id="作文精批" stroke="none" stroke-width="1" fill="none" fill-rule="evenodd">
        <g id="作文精批移动端" transform="translate(-3066.000000, -1539.000000)" stroke="#515151">
            <g id="我的高亮" transform="translate(2706.000000, 1523.000000)">
                <g id="阅读" transform="translate(354.000000, 14.000000)">
                    <g id="错题本2-copy-2">
                        <g id="Group-17" transform="translate(0.910714, 0.000000)" fill="#FFFFFF" stroke-width="2">
                            <path d="M14.52,3 L33.027839,3 C34.9717599,3 36.547619,4.57585918 36.547619,6.51978 L36.547619,29.432601 C36.547619,31.3765218 34.9717599,32.952381 33.027839,32.952381 L14.52,32.952381 C12.5759577,32.952381 11,31.3764233 11,29.432381 L11,6.52 C11,4.57595768 12.5759577,3 14.52,3 Z" id="Rectangle-Copy-15"></path>
                        </g>
                        <g id="Group-17-Copy-2" transform="translate(7.285714, 7.625000)" fill="#FFFFFF" stroke-width="2">
                            <path d="M3.52,-3.37507799e-13 L22.027839,-3.37951889e-13 C23.9717599,-3.38308981e-13 25.547619,1.57585918 25.547619,3.51978 L25.547619,26.432601 C25.547619,28.3765218 23.9717599,29.952381 22.027839,29.952381 L3.52,29.952381 C1.57595768,29.952381 -3.26381762e-12,28.3764233 -3.26405569e-12,26.432381 L-3.26449978e-12,3.52 C-3.26473786e-12,1.57595768 1.57595768,-3.38038863e-13 3.52,-3.38395978e-13 Z" id="Rectangle-Copy-15"></path>
                        </g>
                        <rect id="Rectangle-20-Copy-2" stroke-width="0.88" fill="#515151" x="14.1964286" y="16.5714286" width="11.0141072" height="1.76190476" rx="0.880952381"></rect>
                        <rect id="Rectangle-20-Copy-8" stroke-width="0.88" fill="#515151" x="14.1964286" y="23.1964286" width="7.04761905" height="1.76190476" rx="0.880952381"></rect>
                    </g>
                </g>
            </g>
        </g>
    </g>
</svg>