<?xml version="1.0" encoding="UTF-8"?>
<svg width="40px" height="39px" viewBox="0 0 40 39" version="1.1" xmlns="http://www.w3.org/2000/svg" xmlns:xlink="http://www.w3.org/1999/xlink">
    <!-- Generator: Sketch 50.2 (55047) - http://www.bohemiancoding.com/sketch -->
    <title>个性推荐2 copy</title>
    <desc>Created with Sketch.</desc>
    <defs></defs>
    <g id="作文精批" stroke="none" stroke-width="1" fill="none" fill-rule="evenodd">
        <g id="底部icon" transform="translate(-506.000000, -928.000000)">
            <g id="个性推荐2-copy" transform="translate(504.000000, 925.000000)">
                <path d="M8,4.99978778 L29,4.99978778 C31.209139,4.99978778 33,6.79064878 33,8.99978778 L33,36 C33,38.209139 31.209139,40 29,40 L8,40 C5.790861,40 4,38.209139 4,36 L4,8.99978778 C4,6.79064878 5.790861,4.99978778 8,4.99978778 Z" id="Rectangle" stroke="#515151" stroke-width="3" fill="#FFDA44"></path>
                <path d="M41.1242466,21.5931408 L40.0866372,19.9882704 C39.7407674,19.4402659 39.1258877,19.1271204 38.472578,19.1271204 C38.0882782,19.1271204 37.7039784,19.24455 37.3965386,19.4794091 L27.2510239,26.4468953 C27.2125939,26.4860385 27.174164,26.4860385 27.135734,26.5251817 C27.020444,26.5643248 26.9435841,26.6426112 26.8667241,26.7600408 L23.0237261,32.005227 C22.8315762,32.2792293 22.8315762,32.6315179 22.9852962,32.9055202 C23.1390161,33.1403793 23.369596,33.2578088 23.6386058,33.2578088 C23.7154658,33.2578088 23.7538957,33.2578088 23.8307557,33.2186656 L30.0564124,31.5355088 C30.1717024,31.4963657 30.2869923,31.4572225 30.3638523,31.3789361 C30.4022823,31.3397929 30.4407122,31.3397929 30.4791422,31.3006498 L40.5862269,24.3331635 C41.5085464,23.7460158 41.7391263,22.493434 41.1242466,21.5931408 L41.1242466,21.5931408 Z M30.0564124,29.6957793 L28.5576432,27.4254748 L35.8593394,22.4151476 L37.3581086,24.6854522 L30.0564124,29.6957793 L30.0564124,29.6957793 Z M27.3278839,28.756343 L28.4039233,30.3612134 L25.5985348,31.144077 L27.3278839,28.756343 L27.3278839,28.756343 Z M39.7407674,23.0414385 L38.626298,23.8243022 L37.1275287,21.5539977 L38.2419982,20.771134 C38.3188581,20.7319909 38.3957181,20.6928477 38.472578,20.6928477 C38.626298,20.6928477 38.7415879,20.771134 38.8184479,20.8885636 L39.8560573,22.493434 C39.9713472,22.6500067 39.9329173,22.924009 39.7407674,23.0414385 L39.7407674,23.0414385 Z" id="Shape" stroke="#515151" fill="#515151"></path>
                <polygon id="Path" fill="#FFFFFF" points="30.0564124 29.6957793 28.5576432 27.4254748 35.8593394 22.4151476 37.3581086 24.6854522"></polygon>
                <polygon id="Path" fill="#FFFFFF" points="27.3278839 28.756343 28.4039233 30.3612134 25.5985348 31.144077"></polygon>
                <path d="M39.7407674,23.0414385 L38.626298,23.8243022 L37.1275287,21.5539977 L38.2419982,20.771134 C38.3188581,20.7319909 38.3957181,20.6928477 38.472578,20.6928477 C38.626298,20.6928477 38.7415879,20.771134 38.8184479,20.8885636 L39.8560573,22.493434 C39.9713472,22.6500067 39.9329173,22.924009 39.7407674,23.0414385 L39.7407674,23.0414385 Z" id="Path" fill="#FFFFFF"></path>
                <path d="M10.5,16 C11.3284271,16 12,15.3284271 12,14.5 C12,13.6715729 11.3284271,13 10.5,13 C9.67157288,13 9,13.6715729 9,14.5 C9,15.3284271 9.67157288,16 10.5,16 Z" id="Shape" stroke="#515151" fill="#515151"></path>
                <path d="M10.5,23 C11.3284271,23 12,22.3284271 12,21.5 C12,20.6715729 11.3284271,20 10.5,20 C9.67157288,20 9,20.6715729 9,21.5 C9,22.3284271 9.67157288,23 10.5,23 Z" id="Shape-Copy-3" stroke="#515151" fill="#515151"></path>
                <path d="M10.5,30 C11.3284271,30 12,29.3284271 12,28.5 C12,27.6715729 11.3284271,27 10.5,27 C9.67157288,27 9,27.6715729 9,28.5 C9,29.3284271 9.67157288,30 10.5,30 Z" id="Shape-Copy-4" stroke="#515151" fill="#515151"></path>
                <rect id="Rectangle-11" stroke="#515151" fill="#515151" x="15" y="13" width="12" height="2" rx="1"></rect>
                <rect id="Rectangle-11-Copy" stroke="#515151" fill="#515151" x="15" y="20" width="12" height="2" rx="1"></rect>
                <rect id="Rectangle-11-Copy-2" stroke="#515151" fill="#515151" x="15" y="27" width="6" height="2" rx="1"></rect>
            </g>
        </g>
    </g>
</svg>