<?xml version="1.0" encoding="UTF-8"?>
<svg width="39px" height="36px" viewBox="0 0 39 36" version="1.1" xmlns="http://www.w3.org/2000/svg" xmlns:xlink="http://www.w3.org/1999/xlink">
    <!-- Generator: Sketch 50.2 (55047) - http://www.bohemiancoding.com/sketch -->
    <title>写作</title>
    <desc>Created with Sketch.</desc>
    <defs></defs>
    <g id="作文精批" stroke="none" stroke-width="1" fill="none" fill-rule="evenodd">
        <g id="底部icon" transform="translate(-505.000000, -148.000000)">
            <g id="写作" transform="translate(503.000000, 145.000000)">
                <path d="M40.2498378,19.4660204 L39.2122284,17.86115 C38.8663585,17.3131454 38.2514789,17 37.5981692,17 C37.2138694,17 36.8295696,17.1174295 36.5221298,17.3522886 L26.3766151,24.3197749 C26.3381851,24.358918 26.2997551,24.358918 26.2613252,24.3980612 C26.1460352,24.4372044 26.0691753,24.5154908 25.9923153,24.6329203 L22.1493173,29.8781066 C21.9571674,30.1521089 21.9571674,30.5043975 22.1108873,30.7783997 C22.2646073,31.0132588 22.4951871,31.1306884 22.764197,31.1306884 C22.8410569,31.1306884 22.8794869,31.1306884 22.9563469,31.0915452 L29.1820036,29.4083884 C29.2972936,29.3692452 29.4125835,29.330102 29.4894435,29.2518157 C29.5278734,29.2126725 29.5663034,29.2126725 29.6047334,29.1735293 L39.7118181,22.2060431 C40.6341376,21.6188954 40.8647175,20.3663136 40.2498378,19.4660204 L40.2498378,19.4660204 Z M29.1820036,27.5686589 L27.6832344,25.2983544 L34.9849306,20.2880272 L36.4836998,22.5583317 L29.1820036,27.5686589 L29.1820036,27.5686589 Z M26.4534751,26.6292226 L27.5295145,28.234093 L24.724126,29.0169566 L26.4534751,26.6292226 L26.4534751,26.6292226 Z M38.8663585,20.9143181 L37.7518891,21.6971817 L36.2531199,19.4268772 L37.3675893,18.6440136 C37.4444493,18.6048704 37.5213093,18.5657272 37.5981692,18.5657272 C37.7518891,18.5657272 37.8671791,18.6440136 37.944039,18.7614431 L38.9816485,20.3663136 C39.0969384,20.5228863 39.0585084,20.7968886 38.8663585,20.9143181 L38.8663585,20.9143181 Z" id="Shape" fill="#515151"></path>
                <path d="M10.5,14 C11.3284271,14 12,13.3284271 12,12.5 C12,11.6715729 11.3284271,11 10.5,11 C9.67157288,11 9,11.6715729 9,12.5 C9,13.3284271 9.67157288,14 10.5,14 Z" id="Shape" fill="#515151"></path>
                <path d="M10.5,21 C11.3284271,21 12,20.3284271 12,19.5 C12,18.6715729 11.3284271,18 10.5,18 C9.67157288,18 9,18.6715729 9,19.5 C9,20.3284271 9.67157288,21 10.5,21 Z" id="Shape-Copy-3" fill="#515151"></path>
                <path d="M10.5,28 C11.3284271,28 12,27.3284271 12,26.5 C12,25.6715729 11.3284271,25 10.5,25 C9.67157288,25 9,25.6715729 9,26.5 C9,27.3284271 9.67157288,28 10.5,28 Z" id="Shape-Copy-4" fill="#515151"></path>
                <rect id="Rectangle-11" fill="#515151" x="15" y="11" width="12" height="2" rx="1"></rect>
                <rect id="Rectangle-11-Copy" fill="#515151" x="15" y="18" width="12" height="2" rx="1"></rect>
                <rect id="Rectangle-11-Copy-2" fill="#515151" x="15" y="25" width="6" height="2" rx="1"></rect>
                <path d="M32,35 L32,17.0040517 C32,12.3266082 32,12.3266082 32,9.81542969 C32,8.43622855 32,8.43622855 32,7.00021828 C32,5.34336403 30.6568542,4.00021828 29,4.00021828 L6,4.00021828 C4.34314575,4.00021828 3,5.34336403 3,7.00021828 L3,35 C3,36.6568542 4.34314575,38 6,38 L29,38 C30.6568542,38 32,36.6568542 32,35 Z" id="Rectangle" stroke="#515151" stroke-width="2"></path>
            </g>
        </g>
    </g>
</svg>